<?xml version="1.0" standalone="no"?>
<!DOCTYPE svg PUBLIC "-//W3C//DTD SVG 20010904//EN"
 "http://www.w3.org/TR/2001/REC-SVG-20010904/DTD/svg10.dtd">
<svg version="1.0" xmlns="http://www.w3.org/2000/svg"
 width="160.000000pt" height="160.000000pt" viewBox="0 0 160.000000 160.000000"
 preserveAspectRatio="xMidYMid meet">
<metadata>
Created by potrace 1.14, written by Peter Selinger 2001-2017
</metadata>
<g transform="translate(0.000000,160.000000) scale(0.100000,-0.100000)"
fill="#000000" stroke="none">
<path d="M707 1463 c-3 -5 -8 -24 -13 -43 -4 -19 -9 -39 -11 -45 -6 -20 -24
-110 -26 -127 -1 -12 -28 -27 -87 -49 -47 -17 -98 -37 -115 -44 -16 -7 -52
-20 -80 -30 -27 -10 -63 -23 -80 -30 -16 -7 -66 -26 -110 -42 l-80 -30 1 -49
c1 -27 4 -125 8 -219 4 -93 9 -222 10 -285 l3 -114 94 -46 c52 -25 122 -58
156 -73 35 -15 118 -54 185 -86 68 -32 148 -70 179 -84 l57 -26 329 165 329
165 1 32 c0 18 4 138 8 267 12 353 12 362 -5 371 -13 6 -35 15 -60 24 -3 1
-12 4 -20 8 -13 5 -71 25 -312 109 -32 11 -58 25 -58 31 1 7 7 39 15 72 16 67
18 81 8 72 -3 -4 -11 -3 -17 2 -6 5 -29 14 -51 20 -22 7 -47 15 -55 18 -8 4
-17 7 -20 8 -55 15 -156 52 -158 57 -5 10 -20 10 -25 1z"/>
</g>
</svg>
